<svg id="visual" viewBox="0 0 900 600" width="900" height="600" xmlns="http://www.w3.org/2000/svg" xmlns:xlink="http://www.w3.org/1999/xlink" version="1.1"><path d="M0 315L21.5 321.3C43 327.7 86 340.3 128.8 361.2C171.7 382 214.3 411 257.2 411.8C300 412.7 343 385.3 385.8 370C428.7 354.7 471.3 351.3 514.2 366.7C557 382 600 416 642.8 418.8C685.7 421.7 728.3 393.3 771.2 385.5C814 377.7 857 390.3 878.5 396.7L900 403L900 601L878.5 601C857 601 814 601 771.2 601C728.3 601 685.7 601 642.8 601C600 601 557 601 514.2 601C471.3 601 428.7 601 385.8 601C343 601 300 601 257.2 601C214.3 601 171.7 601 128.8 601C86 601 43 601 21.5 601L0 601Z" fill="#094067"></path><path d="M0 406L21.5 411.7C43 417.3 86 428.7 128.8 432C171.7 435.3 214.3 430.7 257.2 432.8C300 435 343 444 385.8 438.7C428.7 433.3 471.3 413.7 514.2 419.8C557 426 600 458 642.8 462.3C685.7 466.7 728.3 443.3 771.2 445.2C814 447 857 474 878.5 487.5L900 501L900 601L878.5 601C857 601 814 601 771.2 601C728.3 601 685.7 601 642.8 601C600 601 557 601 514.2 601C471.3 601 428.7 601 385.8 601C343 601 300 601 257.2 601C214.3 601 171.7 601 128.8 601C86 601 43 601 21.5 601L0 601Z" fill="#2372af"></path><path d="M0 489L21.5 484.8C43 480.7 86 472.3 128.8 474.5C171.7 476.7 214.3 489.3 257.2 499.5C300 509.7 343 517.3 385.8 516.2C428.7 515 471.3 505 514.2 495.5C557 486 600 477 642.8 478.8C685.7 480.7 728.3 493.3 771.2 494.2C814 495 857 484 878.5 478.5L900 473L900 601L878.5 601C857 601 814 601 771.2 601C728.3 601 685.7 601 642.8 601C600 601 557 601 514.2 601C471.3 601 428.7 601 385.8 601C343 601 300 601 257.2 601C214.3 601 171.7 601 128.8 601C86 601 43 601 21.5 601L0 601Z" fill="#3da9fc"></path></svg>